<?xml version="1.0" encoding="UTF-8"?>
<svg xmlns="http://www.w3.org/2000/svg" width="16" height="16" viewBox="0 0 16 16" fill="none">
  <circle cx="8" cy="8" r="7" fill="#F0F0F0" stroke="#CCCCCC" stroke-width="0.5"/>
  <path d="M8 3.5C5.51 3.5 3.5 5.51 3.5 8C3.5 10.49 5.51 12.5 8 12.5C10.49 12.5 12.5 10.49 12.5 8C12.5 5.51 10.49 3.5 8 3.5ZM11 8.5H8.5V11C8.5 11.28 8.28 11.5 8 11.5C7.72 11.5 7.5 11.28 7.5 11V8.5H5C4.72 8.5 4.5 8.28 4.5 8C4.5 7.72 4.72 7.5 5 7.5H7.5V5C7.5 4.72 7.72 4.5 8 4.5C8.28 4.5 8.5 4.72 8.5 5V7.5H11C11.28 7.5 11.5 7.72 11.5 8C11.5 8.28 11.28 8.5 11 8.5Z" fill="#888888"/>
</svg> 